<svg width="81" height="82" viewBox="0 0 81 82" fill="none" xmlns="http://www.w3.org/2000/svg">
<path d="M3.52273 62V15.4545H22.75C26.2348 15.4545 29.2424 16.1364 31.7727 17.5C34.3182 18.8485 36.2803 20.7348 37.6591 23.1591C39.0379 25.5682 39.7273 28.3712 39.7273 31.5682C39.7273 34.7803 39.0227 37.5909 37.6136 40C36.2197 42.3939 34.2273 44.25 31.6364 45.5682C29.0455 46.8864 25.9697 47.5455 22.4091 47.5455H10.5455V38.6818H20.3182C22.0152 38.6818 23.4318 38.3864 24.5682 37.7955C25.7197 37.2045 26.5909 36.3788 27.1818 35.3182C27.7727 34.2424 28.0682 32.9924 28.0682 31.5682C28.0682 30.1288 27.7727 28.8864 27.1818 27.8409C26.5909 26.7803 25.7197 25.9621 24.5682 25.3864C23.4167 24.8106 22 24.5227 20.3182 24.5227H14.7727V62H3.52273Z" fill="black"/>
<path d="M45.5227 62V15.4545H77.2955V24.5909H56.7727V34.1364H75.2727V43.2955H56.7727V62H45.5227Z" fill="url(#paint0_linear_32_8)"/>
<defs>
<linearGradient id="paint0_linear_32_8" x1="12" y1="74" x2="35.16" y2="2.72949" gradientUnits="userSpaceOnUse">
<stop offset="0.274944" stop-color="#7CF479"/>
<stop offset="0.274944" stop-color="#F1F600"/>
<stop offset="0.421885" stop-color="#95E4EA"/>
<stop offset="0.638858" stop-color="#9D6AEF"/>
<stop offset="0.804" stop-color="#D85BAE"/>
<stop offset="1" stop-color="#EE3153"/>
</linearGradient>
</defs>
</svg>
