 <svg role="img" width="200" height="127" viewBox="0 0 298 127" fill="none" xmlns="http://www.w3.org/2000/svg">
                    <path d="M3.52273 62V15.4545H22.75C26.2348 15.4545 29.2424 16.1364 31.7727 17.5C34.3182 18.8485 36.2803 20.7348 37.6591 23.1591C39.0379 25.5682 39.7273 28.3712 39.7273 31.5682C39.7273 34.7803 39.0227 37.5909 37.6136 40C36.2197 42.3939 34.2273 44.25 31.6364 45.5682C29.0455 46.8864 25.9697 47.5455 22.4091 47.5455H10.5455V38.6818H20.3182C22.0152 38.6818 23.4318 38.3864 24.5682 37.7955C25.7197 37.2045 26.5909 36.3788 27.1818 35.3182C27.7727 34.2424 28.0682 32.9924 28.0682 31.5682C28.0682 30.1288 27.7727 28.8864 27.1818 27.8409C26.5909 26.7803 25.7197 25.9621 24.5682 25.3864C23.4167 24.8106 22 24.5227 20.3182 24.5227H14.7727V62H3.52273ZM45.2727 62V27.0909H56.0682V33.4545H56.4318C57.0682 31.1515 58.1061 29.4394 59.5455 28.3182C60.9848 27.1818 62.6591 26.6136 64.5682 26.6136C65.0833 26.6136 65.6136 26.6515 66.1591 26.7273C66.7045 26.7879 67.2121 26.8864 67.6818 27.0227V36.6818C67.1515 36.5 66.4545 36.3561 65.5909 36.25C64.7424 36.1439 63.9848 36.0909 63.3182 36.0909C62 36.0909 60.8106 36.3864 59.75 36.9773C58.7045 37.553 57.8788 38.3636 57.2727 39.4091C56.6818 40.4394 56.3864 41.6515 56.3864 43.0455V62H45.2727ZM86.6932 62.6591C83.0265 62.6591 79.875 61.9091 77.2386 60.4091C74.6174 58.8939 72.5947 56.7879 71.1705 54.0909C69.7614 51.3788 69.0568 48.2348 69.0568 44.6591C69.0568 41.0682 69.7614 37.9242 71.1705 35.2273C72.5947 32.5152 74.6174 30.4091 77.2386 28.9091C79.875 27.3939 83.0265 26.6364 86.6932 26.6364C90.3598 26.6364 93.5038 27.3939 96.125 28.9091C98.7614 30.4091 100.784 32.5152 102.193 35.2273C103.617 37.9242 104.33 41.0682 104.33 44.6591C104.33 48.2348 103.617 51.3788 102.193 54.0909C100.784 56.7879 98.7614 58.8939 96.125 60.4091C93.5038 61.9091 90.3598 62.6591 86.6932 62.6591ZM86.7614 54.2727C88.0947 54.2727 89.2235 53.8636 90.1477 53.0455C91.072 52.2273 91.7765 51.0909 92.2614 49.6364C92.7614 48.1818 93.0114 46.5 93.0114 44.5909C93.0114 42.6515 92.7614 40.9545 92.2614 39.5C91.7765 38.0455 91.072 36.9091 90.1477 36.0909C89.2235 35.2727 88.0947 34.8636 86.7614 34.8636C85.3826 34.8636 84.2159 35.2727 83.2614 36.0909C82.322 36.9091 81.6023 38.0455 81.1023 39.5C80.6174 40.9545 80.375 42.6515 80.375 44.5909C80.375 46.5 80.6174 48.1818 81.1023 49.6364C81.6023 51.0909 82.322 52.2273 83.2614 53.0455C84.2159 53.8636 85.3826 54.2727 86.7614 54.2727ZM110.023 27.0909H121.136V63.4545C121.136 66.3333 120.545 68.6212 119.364 70.3182C118.197 72.0152 116.545 73.2348 114.409 73.9773C112.273 74.7197 109.75 75.0909 106.841 75.0909C106.447 75.0909 106.076 75.0833 105.727 75.0682C105.379 75.053 105 75.0379 104.591 75.0227V66.5909C104.864 66.6212 105.106 66.6439 105.318 66.6591C105.53 66.6742 105.742 66.6818 105.955 66.6818C107.485 66.6818 108.545 66.3939 109.136 65.8182C109.727 65.2576 110.023 64.3939 110.023 63.2273V27.0909ZM115.568 23.0227C114.008 23.0227 112.667 22.5076 111.545 21.4773C110.424 20.4318 109.864 19.1742 109.864 17.7045C109.864 16.25 110.424 15.0076 111.545 13.9773C112.667 12.9318 114.008 12.4091 115.568 12.4091C117.144 12.4091 118.485 12.9318 119.591 13.9773C120.712 15.0076 121.273 16.25 121.273 17.7045C121.273 19.1742 120.712 20.4318 119.591 21.4773C118.485 22.5076 117.144 23.0227 115.568 23.0227ZM144.528 62.6591C140.877 62.6591 137.725 61.9394 135.074 60.5C132.438 59.0455 130.407 56.9773 128.983 54.2955C127.574 51.5985 126.869 48.3939 126.869 44.6818C126.869 41.0758 127.581 37.9242 129.006 35.2273C130.43 32.5152 132.438 30.4091 135.028 28.9091C137.619 27.3939 140.672 26.6364 144.188 26.6364C146.672 26.6364 148.945 27.0227 151.006 27.7955C153.066 28.5682 154.847 29.7121 156.347 31.2273C157.847 32.7424 159.013 34.6136 159.847 36.8409C160.68 39.053 161.097 41.5909 161.097 44.4545V47.2273H130.756V40.7727H150.756C150.741 39.5909 150.46 38.5379 149.915 37.6136C149.369 36.6894 148.619 35.9697 147.665 35.4545C146.725 34.9242 145.642 34.6591 144.415 34.6591C143.172 34.6591 142.059 34.9394 141.074 35.5C140.089 36.0455 139.309 36.7955 138.733 37.75C138.157 38.6894 137.854 39.7576 137.824 40.9545V47.5227C137.824 48.947 138.104 50.197 138.665 51.2727C139.225 52.3333 140.021 53.1591 141.051 53.75C142.081 54.3409 143.309 54.6364 144.733 54.6364C145.718 54.6364 146.612 54.5 147.415 54.2273C148.218 53.9545 148.907 53.553 149.483 53.0227C150.059 52.4924 150.491 51.8409 150.778 51.0682L160.983 51.3636C160.559 53.6515 159.627 55.6439 158.188 57.3409C156.763 59.0227 154.892 60.3333 152.574 61.2727C150.256 62.197 147.574 62.6591 144.528 62.6591ZM183.068 62.6591C179.386 62.6591 176.227 61.9015 173.591 60.3864C170.97 58.8712 168.955 56.7652 167.545 54.0682C166.136 51.3561 165.432 48.2197 165.432 44.6591C165.432 41.0833 166.136 37.947 167.545 35.25C168.97 32.5379 170.992 30.4242 173.614 28.9091C176.25 27.3939 179.394 26.6364 183.045 26.6364C186.273 26.6364 189.083 27.2197 191.477 28.3864C193.886 29.553 195.765 31.2045 197.114 33.3409C198.477 35.4621 199.197 37.9545 199.273 40.8182H188.886C188.674 39.0303 188.068 37.6288 187.068 36.6136C186.083 35.5985 184.795 35.0909 183.205 35.0909C181.917 35.0909 180.788 35.4545 179.818 36.1818C178.848 36.8939 178.091 37.9545 177.545 39.3636C177.015 40.7576 176.75 42.4848 176.75 44.5455C176.75 46.6061 177.015 48.3485 177.545 49.7727C178.091 51.1818 178.848 52.25 179.818 52.9773C180.788 53.6894 181.917 54.0455 183.205 54.0455C184.235 54.0455 185.144 53.8258 185.932 53.3864C186.735 52.947 187.394 52.303 187.909 51.4545C188.424 50.5909 188.75 49.5455 188.886 48.3182H199.273C199.167 51.197 198.447 53.7121 197.114 55.8636C195.795 58.0152 193.939 59.6894 191.545 60.8864C189.167 62.0682 186.341 62.6591 183.068 62.6591ZM224.665 27.0909V35.2727H202.642V27.0909H224.665ZM207.256 18.7273H218.369V51.0227C218.369 51.7045 218.475 52.2576 218.688 52.6818C218.915 53.0909 219.241 53.3864 219.665 53.5682C220.089 53.7348 220.597 53.8182 221.188 53.8182C221.612 53.8182 222.059 53.7803 222.528 53.7045C223.013 53.6136 223.377 53.5379 223.619 53.4773L225.301 61.5C224.771 61.6515 224.021 61.8409 223.051 62.0682C222.097 62.2955 220.953 62.4394 219.619 62.5C217.013 62.6212 214.778 62.3182 212.915 61.5909C211.066 60.8485 209.65 59.697 208.665 58.1364C207.695 56.5758 207.225 54.6136 207.256 52.25V18.7273Z" fill="black"/>
                    <path d="M104.614 112L112.341 65.4545H144.114L142.568 74.5909H122.045L120.5 84.1364H139L137.455 93.2955H118.955L115.864 112H104.614ZM177.938 65.4545H189.165L184.188 95.4773C183.612 98.947 182.286 101.97 180.21 104.545C178.15 107.106 175.521 109.091 172.324 110.5C169.127 111.894 165.566 112.591 161.642 112.591C157.703 112.591 154.377 111.894 151.665 110.5C148.953 109.091 146.991 107.106 145.778 104.545C144.566 101.97 144.241 98.947 144.801 95.4773L149.778 65.4545H161.028L156.188 94.5C155.93 96.1061 156.051 97.5379 156.551 98.7955C157.066 100.038 157.9 101.023 159.051 101.75C160.203 102.462 161.612 102.818 163.278 102.818C164.96 102.818 166.498 102.462 167.892 101.75C169.286 101.023 170.438 100.038 171.347 98.7955C172.256 97.5379 172.839 96.1061 173.097 94.5L177.938 65.4545ZM196.216 65.4545H210.148L217.193 94.2727H217.739L234.33 65.4545H248.261L240.534 112H229.58L234.33 83.4091H233.943L218.08 111.705H211.102L204.648 83.25H204.261L199.443 112H188.489L196.216 65.4545ZM295.233 89.4545C294.384 94.4697 292.718 98.7045 290.233 102.159C287.763 105.598 284.756 108.205 281.21 109.977C277.68 111.75 273.884 112.636 269.824 112.636C265.536 112.636 261.824 111.682 258.688 109.773C255.551 107.864 253.271 105.083 251.847 101.432C250.438 97.7803 250.165 93.3485 251.028 88.1364C251.847 83.1212 253.491 78.8788 255.96 75.4091C258.445 71.9394 261.468 69.3106 265.028 67.5227C268.604 65.7197 272.438 64.8182 276.528 64.8182C280.786 64.8182 284.475 65.7803 287.597 67.7045C290.733 69.6288 293.006 72.4242 294.415 76.0909C295.824 79.7576 296.097 84.2121 295.233 89.4545ZM283.983 88.1364C284.453 85.2121 284.453 82.75 283.983 80.75C283.528 78.75 282.634 77.2424 281.301 76.2273C279.968 75.197 278.233 74.6818 276.097 74.6818C273.733 74.6818 271.597 75.2651 269.688 76.4318C267.794 77.5833 266.21 79.2651 264.938 81.4773C263.665 83.6742 262.778 86.3333 262.278 89.4545C261.763 92.4091 261.748 94.8712 262.233 96.8409C262.733 98.8106 263.665 100.295 265.028 101.295C266.392 102.28 268.127 102.773 270.233 102.773C272.581 102.773 274.695 102.205 276.574 101.068C278.453 99.9318 280.021 98.2727 281.278 96.0909C282.551 93.9091 283.453 91.2576 283.983 88.1364Z" fill="url(#paint0_linear_9_4)"/>
                    <defs>
                        <linearGradient id="paint0_linear_9_4" x1="104" y1="66.2105" x2="298.289" y2="101.073" gradientUnits="userSpaceOnUse">
                            <stop offset="0.065" stop-color="#F1F600"/>
                            <stop offset="0.243705" stop-color="#7CF479"/>
                            <stop offset="0.42293" stop-color="#95E4EA"/>
                            <stop offset="0.638858" stop-color="#9D6AEF"/>
                            <stop offset="0.804" stop-color="#D85BAE"/>
                            <stop offset="1" stop-color="#EE3153"/>
                        </linearGradient>
                    </defs>
                </svg>